<?xml version="1.0" encoding="UTF-8"?>
<svg id="Layer_1" data-name="Layer 1" xmlns="http://www.w3.org/2000/svg" viewBox="0 0 360.92 68.6">
  <defs>
    <style>
      .cls-1 {
        fill: #efa126;
      }

      .cls-1, .cls-2, .cls-3, .cls-4 {
        stroke-width: 0px;
      }

      .cls-2 {
        fill: #231916;
      }

      .cls-3 {
        fill: #2a2f88;
      }

      .cls-4 {
        fill: #fff;
      }
    </style>
  </defs>
  <g>
    <path class="cls-3" d="m43.27,45.95c14.54,0,26.38,6.24,26.91,14.04l16.6-16.6L43.39,0,0,43.39l16.37,16.36c.75-7.69,12.51-13.8,26.9-13.8Z"/>
    <path class="cls-1" d="m62.46,58.78c0,5.42-8.59,9.81-19.19,9.81s-19.2-4.39-19.2-9.81,8.59-9.81,19.2-9.81,19.19,4.39,19.19,9.81Z"/>
    <path class="cls-4" d="m47.1,35.23c-5.85,9.88-.94,20.88-.94,20.88.04-.13.09-.27.13-.4.38-1.07,1.53-3.7,5.33-6.42,1.66-1.2,4.39-2.36,6.97-3.4,0,0,0,0,0,0,1.65-.67,3.08-1.89,3.97-3.57,2.08-3.89.54-8.78-3.43-10.92-3.97-2.14-9.18-.97-12.02,3.84Z"/>
    <path class="cls-4" d="m26.23,29.58c-2.46,2.01-2.88,5.59-.93,8,.84,1.04,1.99,1.7,3.22,1.94,0,0,0,0,0,0,1.92.38,3.96.82,5.27,1.43,2.99,1.39,4.13,3.05,4.53,3.74.05.09.1.17.14.26,0,0,1.94-8.25-3.41-14.32-2.6-2.95-6.36-3.07-8.82-1.06Z"/>
  </g>
  <path class="cls-2" d="m100.58,30.08h20.18V12.87h-4.2v4.51h-13.52v-4.2h-3.99v15.06c-.11,1.22.31,1.94,1.53,1.84m2.56-8.39h13.52v4.3h-13.52v-4.3Z"/>
  <polyline class="cls-2" points="96.9 33.97 96.9 38.16 108.06 38.16 108.06 46.35 109.9 46.35 112.16 46.35 112.16 38.16 122.91 38.16 122.91 33.97 109.9 33.97"/>
  <path class="cls-2" d="m150.86,12.97h-4.1v28.16h-13.01v-7.37h-4.3v9.32c.1,1.95,1.13,2.25,2.26,2.36h19.25v-21.71h3.68v-4.3h-3.79"/>
  <path class="cls-2" d="m137.04,23.83l4.2,6.24,3.38-2.87-7.58-11.77-.92-1.34c-.61-.92-1.33-.92-1.94,0-2.87,4.31-5.63,8.71-8.5,13.01l3.28,3.07,6.14-9.31"/>
  <path class="cls-2" d="m226.64,13.9c-2.77,4.3-6.04,11.37-8.91,15.66l3.28,3.08,6.65-11.98,6.46,11.98,3.27-2.87-8.7-15.87c-.72-.92-1.33-.92-2.05,0"/>
  <path class="cls-2" d="m243.84,12.97h-4.1v32.46h4.2c0-17.2-.1-21.51-.1-32.46"/>
  <path class="cls-2" d="m182.5,13.08h-4.2v14.44h-3.27v-11.67c0-1.33-1.54-1.75-2.16-1.75h-.61l-13.1-.1v4.2h11.67v9.22h-4.3v-6.97h-4.3v6.97h-4.5v4.4h6.86c-1.02,1.64-1.64,3.68-1.64,5.83,0,5.53,4.2,10.03,9.32,10.03s9.32-4.5,9.32-10.03c0-2.15-.61-4.2-1.74-5.83h2.76v-7.98h3.48v-4.41h-3.58m-10.24,24.07c-2.86,0-5.22-2.66-5.22-5.84,0-2.97,1.95-5.42,4.4-5.83h1.64c2.46.42,4.4,2.86,4.4,5.83,0,3.18-2.35,5.84-5.22,5.84"/>
  <path class="cls-2" d="m211.07,16.05h-7.27c-1.43-2.26-3.89-3.79-6.55-3.79-4.4,0-8.09,4.19-8.09,9.22s3.69,9.11,8.09,9.11c2.66,0,5.12-1.43,6.55-3.79h7.27v5.94h-17.41v4.09h17.41v9.01h4.09V13.08h-4.09m-13.83,13c-2.15,0-3.99-2.05-3.99-4.61s1.85-4.72,3.99-4.72,4.1,2.15,4.1,4.72-1.85,4.61-4.1,4.61m13.83-3.38h-5.84c.1-.4.1-.82.1-1.22s0-.82-.1-1.23h5.84v2.46Z"/>
  <path class="cls-2" d="m259.15,30.67v10.82c0,1.14.24,1.91.84,2.45.48.42,1.13.66,2.09.66h22.89c.9,0,1.62-.23,2.09-.66.6-.54.9-1.31.9-2.45v-10.82h-14.46m8.55,5.08v3.71h-17.04v-3.71h17.04Z"/>
  <polyline class="cls-2" points="287.96 13.81 273.5 13.81 259.15 13.81 259.15 19.01 273.5 19.01 281.99 19.01 281.99 23.61 273.5 23.61 258.14 23.61 258.14 28.87 273.5 28.87 289.4 28.87 289.4 23.61 287.96 23.61"/>
  <polyline class="cls-2" points="318.54 13.81 318.54 18.77 315.07 18.77 315.07 23.73 318.54 23.73 318.54 29.23 319.68 29.23 324.52 29.23 324.52 13.81 319.68 13.81"/>
  <path class="cls-2" d="m304.73,24.33c.72,1.26,1.91,2.33,3.59,3.29.9.42,1.79.78,2.75,1.08,1.02.24,2.03.42,3.11.48v-5.5c-.84-.18-2.03-.54-3.11-1.14-1.49-.84-2.87-1.97-3.11-3.41h6.04v-5.32h-18.65v5.32h5.98c-.36,2.51-3.95,4.18-6.09,4.54v5.5c1.91-.12,3.76-.6,5.62-1.56,1.85-.95,3.17-2.03,3.88-3.29"/>
  <path class="cls-2" d="m319.68,31.26c-2.33-1.25-5.32-2.03-8.61-2.03-7.23,0-13.15,3.77-13.15,8.43s5.92,8.43,13.15,8.43c3.29,0,6.28-.78,8.61-2.09,2.81-1.49,4.55-3.82,4.55-6.33s-1.74-4.85-4.55-6.4m-8.61,9.81c-3.23,0-5.86-1.56-5.86-3.41s2.63-3.41,5.86-3.41,5.86,1.49,5.86,3.41-2.63,3.41-5.86,3.41"/>
  <polyline class="cls-2" points="358.82 27.2 358.82 13.81 329.95 13.81 329.95 19.13 352.84 19.13 352.84 27.2 328.94 27.2 328.94 32.46 341.19 32.46 341.19 44.89 347.11 44.89 347.11 32.46 360.26 32.46 360.26 27.2"/>
  <path class="cls-2" d="m107.38,59.25c0,1.44-.41,2.52-1.24,3.26-.83.74-1.82,1.1-2.96,1.1-.74,0-1.39-.14-1.98-.41-.58-.27-1.08-.65-1.48-1.14-.41-.48-.72-1.05-.94-1.71-.22-.65-.33-1.35-.33-2.09s.11-1.49.33-2.16c.22-.67.53-1.24.94-1.74.4-.49.9-.88,1.48-1.16.58-.28,1.24-.43,1.98-.43.51,0,1.01.08,1.47.25.47.17.88.4,1.25.71.37.31.66.67.9,1.09.24.42.38.89.43,1.4h-1.75c-.12-.5-.38-.93-.76-1.26-.39-.34-.9-.5-1.54-.5-.52,0-.97.1-1.34.3-.37.2-.66.48-.9.82-.23.35-.4.75-.51,1.21-.11.46-.16.94-.16,1.45s.05.94.16,1.39c.11.45.28.84.51,1.19.24.35.53.62.9.82.37.2.81.31,1.33.31.78,0,1.39-.21,1.84-.64.44-.42.69-1.02.75-1.78v-.24h-2.2v-1.45h3.82"/>
  <path class="cls-2" d="m110.45,60.14c0,.57.17,1.03.49,1.37.33.35.77.52,1.33.52.19,0,.39-.03.57-.08l.5-.21.37-.31.18-.36h1.52c-.11.43-.26.81-.46,1.12-.2.32-.44.58-.71.79-.28.21-.59.36-.93.46-.35.1-.72.15-1.11.15-.53,0-1.02-.09-1.45-.29-.43-.19-.8-.46-1.1-.81-.31-.35-.54-.76-.7-1.25-.17-.48-.25-1.01-.25-1.59s.08-1.14.25-1.62c.17-.49.41-.9.72-1.25.31-.34.68-.61,1.11-.8.43-.19.9-.28,1.42-.28.55,0,1.04.11,1.46.33.42.22.77.52,1.06.92.28.4.49.86.63,1.41.14.55.2,1.14.18,1.79m-1.74-1.3l-.14-.56-.33-.51-.51-.36c-.2-.09-.41-.14-.65-.14-.27,0-.5.05-.71.16-.21.11-.38.24-.53.4l-.33.51-.13.51h3.34Z"/>
  <path class="cls-2" d="m123.3,63.37h-1.34l-.4-1.04c-.24.4-.56.7-.97.92-.41.21-.81.32-1.23.32-.85,0-1.48-.27-1.88-.8-.4-.53-.6-1.25-.6-2.14v-4.73h1.76v4.29c0,.62.11,1.07.34,1.35.23.28.56.42.99.42.48,0,.86-.16,1.16-.49.29-.32.44-.78.44-1.36v-4.21h1.74"/>
  <path class="cls-2" d="m125,55.9h1.36l.4,1.31c.22-.53.53-.92.93-1.16.39-.24.81-.36,1.23-.36.25,0,.48.04.71.11.23.07.43.17.62.3l.47.47c.12.18.21.38.26.6.24-.49.55-.85.92-1.1.37-.25.77-.37,1.21-.37.35,0,.68.05.98.16.3.11.56.27.79.49.22.22.4.5.52.84.12.34.19.74.19,1.21v4.99h-1.74v-4.72c0-.38-.11-.7-.33-.95-.22-.25-.54-.38-.98-.38-.21,0-.41.04-.57.12l-.43.32-.27.45-.09.5v4.66h-1.76v-4.69l-.07-.5-.22-.44-.39-.32c-.16-.08-.36-.12-.59-.12l-.48.08-.45.24-.33.4c-.09.15-.14.33-.14.52v4.82h-1.76"/>
  <path class="cls-2" d="m136.48,64c.38.19.67.25.87.17.2-.07.3-.25.3-.53v-7.73h1.74v7.85c0,.43-.05.78-.14,1.07-.08.29-.22.52-.41.69-.19.17-.41.29-.66.37-.25.07-.5.1-.74.1-.22,0-.55-.08-.97-.24m2.91-11h-1.74v-1.69h1.74v1.69Z"/>
  <path class="cls-2" d="m142.51,60.14c0,.57.17,1.03.49,1.37.33.35.77.52,1.33.52.2,0,.38-.03.57-.08l.5-.21.37-.31.18-.36h1.52c-.11.43-.26.81-.46,1.12-.2.32-.44.58-.71.79-.28.21-.59.36-.93.46-.35.1-.72.15-1.1.15-.53,0-1.02-.09-1.45-.29s-.8-.46-1.11-.81c-.3-.35-.54-.76-.7-1.25-.17-.48-.25-1.01-.25-1.59s.08-1.14.25-1.62c.17-.49.41-.9.72-1.25.31-.34.68-.61,1.1-.8.43-.19.9-.28,1.42-.28.55,0,1.04.11,1.46.33.42.22.77.52,1.06.92.28.4.49.86.63,1.41.14.55.19,1.14.18,1.79m-1.74-1.3l-.15-.56-.33-.51c-.14-.15-.31-.27-.51-.36-.2-.09-.41-.14-.65-.14-.27,0-.5.05-.71.16-.21.11-.38.24-.53.4l-.33.51-.13.51h3.34Z"/>
  <path class="cls-2" d="m148.71,59.64c0-1.2.32-2.15.96-2.86.68-.73,1.54-1.09,2.58-1.09s1.92.36,2.6,1.09c.65.69.97,1.64.97,2.86s-.33,2.17-.97,2.85c-.66.72-1.53,1.08-2.6,1.08s-1.92-.36-2.58-1.08c-.64-.7-.96-1.65-.96-2.85m1.74,0c0,.31.03.61.09.89.06.29.17.54.3.76.14.22.33.4.56.53.23.13.51.2.84.2s.62-.06.85-.2c.23-.13.42-.31.56-.53.14-.22.25-.47.31-.76.06-.29.09-.58.09-.89s-.03-.61-.09-.9c-.06-.29-.17-.54-.31-.76-.14-.22-.33-.4-.56-.53-.23-.13-.51-.2-.85-.2s-.61.06-.84.2c-.23.13-.42.31-.56.53-.14.22-.24.48-.3.76-.06.29-.09.59-.09.9"/>
  <path class="cls-2" d="m157.26,55.9h1.36l.4,1.17c.12-.23.26-.43.43-.61l.54-.43c.19-.12.39-.2.6-.26.21-.06.41-.09.62-.09.82,0,1.44.23,1.85.69.42.46.64,1.16.64,2.12v4.87h-1.74v-4.62c0-.43-.11-.77-.33-1.04-.22-.27-.56-.4-1.02-.4s-.82.14-1.12.41c-.31.27-.46.67-.46,1.19v4.46h-1.75"/>
  <path class="cls-2" d="m171.92,62.89c0,.34-.04.71-.13,1.1-.08.39-.25.75-.5,1.08-.25.33-.61.6-1.08.81-.47.21-1.08.32-1.85.32-.34,0-.69-.05-1.05-.14-.35-.1-.68-.25-.96-.44-.28-.2-.52-.45-.7-.75-.19-.3-.29-.66-.31-1.06h1.74c.06.36.22.61.48.77.27.16.62.24,1.05.24.52,0,.93-.16,1.22-.49.29-.33.43-.78.43-1.36v-1.16c-.26.43-.58.77-.97,1-.39.23-.81.35-1.26.35-.5,0-.93-.1-1.3-.29-.37-.19-.67-.46-.91-.8-.24-.34-.42-.73-.53-1.19-.11-.46-.17-.95-.17-1.48,0-.49.06-.96.19-1.4.13-.44.32-.84.57-1.18.25-.34.55-.62.92-.82.36-.21.78-.31,1.25-.31.5,0,.94.12,1.33.37.39.24.69.58.89,1.02l.4-1.17h1.25m-3.39,5.71c.27,0,.52-.06.74-.17.21-.11.4-.26.54-.45.15-.19.26-.41.34-.65.08-.25.12-.52.12-.8,0-.32-.03-.62-.09-.9-.06-.28-.16-.52-.3-.73-.14-.21-.32-.37-.54-.5-.22-.12-.49-.18-.81-.18-.28,0-.52.05-.73.16-.21.11-.38.25-.52.44-.14.19-.24.42-.31.67-.07.26-.11.54-.11.84,0,.28.03.56.09.82.06.27.15.51.29.72.13.21.3.38.51.51.21.13.47.19.78.19"/>
  <polyline class="cls-2" points="173.14 60.27 178.09 60.27 178.09 58.59 173.14 58.59"/>
  <path class="cls-2" d="m185.81,62.89c0,.34-.04.71-.12,1.1-.09.39-.25.75-.51,1.08-.26.33-.62.6-1.08.81-.47.21-1.08.32-1.84.32-.35,0-.7-.05-1.05-.14-.36-.1-.68-.25-.96-.44-.28-.2-.52-.45-.71-.75-.18-.3-.29-.66-.31-1.06h1.74c.06.36.21.61.48.77.27.16.62.24,1.05.24.52,0,.93-.16,1.22-.49.29-.33.43-.78.43-1.36v-1.16c-.26.43-.58.77-.97,1-.39.23-.81.35-1.27.35-.5,0-.93-.1-1.3-.29-.37-.19-.67-.46-.91-.8-.24-.34-.42-.73-.53-1.19-.11-.46-.17-.95-.17-1.48,0-.49.06-.96.19-1.4.13-.44.32-.84.57-1.18.25-.34.55-.62.92-.82.36-.21.78-.31,1.25-.31s.94.12,1.33.37c.39.24.69.58.89,1.02l.39-1.17h1.25m-3.39,5.71c.27,0,.52-.06.74-.17.22-.11.4-.26.55-.45.14-.19.26-.41.33-.65.08-.25.12-.52.12-.8,0-.32-.03-.62-.1-.9-.06-.28-.16-.52-.3-.73-.13-.21-.31-.37-.54-.5-.22-.12-.49-.18-.81-.18-.27,0-.52.05-.73.16-.21.11-.38.25-.52.44-.13.19-.24.42-.31.67-.07.26-.1.54-.1.84,0,.28.02.56.08.82.06.27.15.51.29.72.14.21.3.38.51.51.21.13.47.19.78.19"/>
  <path class="cls-2" d="m193.98,63.37h-1.35l-.4-1.04c-.24.4-.56.7-.96.92-.41.21-.82.32-1.24.32-.85,0-1.48-.27-1.88-.8-.4-.53-.61-1.25-.61-2.14v-4.73h1.76v4.29c0,.62.11,1.07.34,1.35.23.28.56.42,1,.42.47,0,.86-.16,1.15-.49.29-.32.44-.78.44-1.36v-4.21h1.74"/>
  <path class="cls-2" d="m195.62,61.39l.2-.16h1.77l.2.19v1.93c0,.31-.04.58-.13.82-.09.24-.22.45-.4.64-.18.19-.4.35-.67.46-.27.12-.59.2-.96.25v-.53c.38-.1.67-.27.85-.51.18-.25.27-.61.27-1.1h-.95l-.18-.2"/>
  <path class="cls-2" d="m204.08,53.04h4.38c.51,0,.97.06,1.36.19.39.13.72.31.98.54.26.22.46.49.59.8.13.31.2.65.2,1.01,0,.59-.12,1.06-.36,1.43-.23.36-.61.61-1.11.73.26.04.5.13.73.28.23.15.44.35.61.58.18.24.32.51.43.82.11.31.16.64.16,1,0,.94-.3,1.67-.9,2.18-.6.51-1.48.77-2.65.77h-4.43m4.15-6.1c.46,0,.83-.1,1.11-.29.28-.2.41-.52.41-.97,0-.48-.14-.82-.43-1.01-.28-.19-.7-.29-1.25-.29h-2.21v2.57h2.38Zm.12,4.45c.55,0,1-.11,1.32-.33.32-.22.48-.59.48-1.11s-.15-.92-.46-1.17c-.31-.24-.74-.37-1.29-.37h-2.55v2.97h2.5Z"/>
  <path class="cls-2" d="m219.84,63.37h-1.34l-.4-1.04c-.24.4-.56.7-.97.92-.4.21-.81.32-1.23.32-.85,0-1.48-.27-1.89-.8-.4-.53-.6-1.25-.6-2.14v-4.73h1.75v4.29c0,.62.11,1.07.34,1.35.23.28.55.42.99.42.48,0,.87-.16,1.16-.49.29-.32.44-.78.44-1.36v-4.21h1.74"/>
  <path class="cls-2" d="m222.8,60.95c0,.43.16.75.46.95.3.2.67.3,1.12.3l.51-.05.43-.17.3-.3.11-.43-.12-.35-.39-.29c-.18-.09-.42-.17-.71-.25-.29-.07-.64-.16-1.06-.26-.29-.07-.57-.15-.83-.25-.26-.09-.49-.21-.68-.36-.19-.15-.34-.34-.46-.56-.11-.22-.18-.5-.19-.83,0-.46.08-.84.25-1.15.16-.31.38-.55.66-.74.27-.19.59-.32.95-.4.36-.08.73-.12,1.11-.12s.75.04,1.1.13c.35.08.66.22.93.4.27.19.49.43.67.74.17.3.28.68.32,1.12h-1.65c-.02-.38-.16-.64-.41-.79-.25-.15-.58-.22-1.01-.22-.33,0-.61.04-.83.14-.23.09-.34.27-.34.55,0,.26.14.45.43.58.29.14.73.26,1.31.39.33.08.66.16.98.25.33.09.61.21.87.37.25.16.46.37.61.62.16.26.23.59.23.98,0,.48-.09.88-.26,1.21-.17.33-.4.6-.69.8-.29.21-.62.36-1,.44-.37.09-.76.14-1.16.14s-.82-.05-1.2-.14c-.38-.09-.72-.24-1.01-.45-.3-.2-.53-.47-.71-.81-.19-.34-.28-.75-.3-1.23"/>
  <path class="cls-2" d="m228.73,58.19c.02-.46.13-.85.32-1.17.19-.32.43-.58.73-.78.3-.2.63-.34,1.01-.43.37-.09.76-.13,1.16-.13.36,0,.72.03,1.08.1.36.06.68.18.96.35.29.17.51.39.69.68.17.28.26.64.26,1.08v3.81c0,.45.02.8.07,1.06.04.25.11.46.2.61h-1.76l-.13-.41-.05-.45c-.34.4-.73.68-1.16.83-.43.16-.86.24-1.3.24-.69,0-1.25-.19-1.67-.57-.42-.38-.63-.93-.63-1.67,0-.47.09-.85.27-1.14.18-.29.41-.52.7-.69.28-.17.59-.29.94-.36.35-.07.69-.13,1.04-.17.57-.07,1-.18,1.3-.31.3-.14.45-.33.45-.58,0-.41-.12-.68-.35-.81-.24-.13-.57-.2-1-.2-.41,0-.73.09-.96.26-.23.17-.37.46-.4.86m2.72,1.48c-.21.12-.44.22-.71.28-.27.06-.61.13-1.01.2-.38.07-.68.19-.9.36-.22.17-.33.41-.33.73,0,.37.11.62.34.75.22.14.54.21.93.21s.7-.06.92-.18c.23-.12.39-.28.5-.46l.21-.56c.03-.19.04-.36.04-.51v-.81Z"/>
  <path class="cls-2" d="m236.64,55.9h1.36l.4,1.17c.12-.23.26-.43.43-.61l.54-.43c.19-.12.39-.2.6-.26.21-.06.41-.09.62-.09.82,0,1.44.23,1.86.69.42.46.63,1.16.63,2.12v4.87h-1.74v-4.62c0-.43-.11-.77-.32-1.04-.22-.27-.56-.4-1.02-.4s-.82.14-1.12.41c-.31.27-.46.67-.46,1.19v4.46h-1.75"/>
  <polyline class="cls-2" points="249.26 53.04 252.03 53.04 254.56 60.83 256.91 53.04 259.68 53.04 259.68 63.37 258 63.37 257.98 54.87 255.18 63.37 253.74 63.37 250.93 54.87 250.93 63.37 249.26 63.37"/>
  <path class="cls-2" d="m262.88,60.14c0,.57.17,1.03.5,1.37.32.35.77.52,1.33.52l.57-.08.5-.21.37-.31.19-.36h1.52c-.11.43-.26.81-.46,1.12-.2.32-.44.58-.71.79-.27.21-.58.36-.93.46-.35.1-.72.15-1.11.15-.53,0-1.02-.09-1.45-.29-.43-.19-.8-.46-1.11-.81-.3-.35-.53-.76-.7-1.25-.17-.48-.25-1.01-.25-1.59s.08-1.14.25-1.62c.17-.49.41-.9.72-1.25.31-.34.68-.61,1.1-.8.43-.19.9-.28,1.42-.28.55,0,1.04.11,1.46.33.42.22.78.52,1.06.92.28.4.49.86.63,1.41.13.55.2,1.14.18,1.79m-1.74-1.3l-.14-.56-.33-.51c-.14-.15-.31-.27-.51-.36-.2-.09-.41-.14-.65-.14-.27,0-.5.05-.71.16-.21.11-.38.24-.53.4l-.33.51-.14.51h3.34Z"/>
  <path class="cls-2" d="m271.58,55.9h1.41v1.37h-1.41v3.7c0,.35.06.58.18.68.12.11.36.17.73.17h.31l.19-.03v1.6l-.43.04c-.17,0-.37.01-.61.01-.3,0-.57-.02-.83-.07-.26-.05-.49-.14-.68-.27-.19-.13-.34-.31-.45-.54-.11-.23-.17-.53-.17-.89v-4.41h-1.18v-1.37h1.18v-2.24h1.76"/>
  <path class="cls-2" d="m274.09,55.9h1.36l.4,1.52c.46-1.15,1.23-1.73,2.3-1.73l.21.02.19.05v1.89l-.29-.04-.41-.02c-.34,0-.65.06-.9.17-.25.11-.46.28-.62.49-.17.21-.29.47-.36.77-.07.3-.11.62-.11.98v3.37h-1.76"/>
  <path class="cls-2" d="m278.94,59.64c0-1.2.32-2.15.96-2.86.68-.73,1.54-1.09,2.58-1.09s1.92.36,2.6,1.09c.65.69.97,1.64.97,2.86s-.32,2.17-.97,2.85c-.67.72-1.53,1.08-2.6,1.08s-1.92-.36-2.58-1.08c-.63-.7-.96-1.65-.96-2.85m1.74,0c0,.31.03.61.1.89.06.29.16.54.3.76.14.22.33.4.56.53.23.13.51.2.84.2s.62-.06.85-.2c.23-.13.41-.31.56-.53.14-.22.24-.47.3-.76.06-.29.09-.58.09-.89s-.03-.61-.09-.9c-.06-.29-.16-.54-.3-.76-.15-.22-.33-.4-.56-.53-.23-.13-.51-.2-.85-.2s-.61.06-.84.2c-.23.13-.41.31-.56.53-.14.22-.24.48-.3.76-.07.29-.1.59-.1.9"/>
  <path class="cls-2" d="m287.49,55.9h1.22l.53,1.04c.23-.42.53-.74.91-.94.38-.2.78-.31,1.21-.31.53,0,.98.11,1.37.33.39.22.72.51.97.87.26.36.45.79.58,1.28.13.49.19,1,.19,1.54s-.06,1.01-.19,1.47c-.13.47-.32.88-.57,1.23-.26.36-.57.64-.94.85-.38.21-.81.31-1.3.31-.4,0-.79-.09-1.17-.26-.38-.17-.73-.48-1.05-.91v3.59h-1.75m3.47-3.97c.32,0,.59-.06.82-.19.22-.13.41-.3.55-.52.14-.22.24-.47.31-.75.06-.28.09-.59.09-.9s-.03-.6-.1-.89c-.07-.29-.17-.55-.32-.77-.15-.22-.33-.4-.56-.54-.22-.14-.49-.21-.81-.21s-.6.06-.83.2c-.23.13-.41.31-.55.53-.14.22-.24.47-.3.76-.06.29-.09.6-.09.92s.03.61.09.9c.06.29.16.54.31.76.14.22.32.39.55.52.23.13.51.19.83.19"/>
  <path class="cls-2" d="m295.6,59.64c0-1.2.32-2.15.96-2.86.68-.73,1.54-1.09,2.59-1.09s1.92.36,2.6,1.09c.65.69.97,1.64.97,2.86s-.33,2.17-.97,2.85c-.67.72-1.53,1.08-2.6,1.08s-1.92-.36-2.59-1.08c-.64-.7-.96-1.65-.96-2.85m1.75,0c0,.31.03.61.09.89.06.29.16.54.31.76.14.22.33.4.56.53.23.13.51.2.84.2s.62-.06.85-.2c.23-.13.42-.31.56-.53.14-.22.24-.47.3-.76.06-.29.1-.58.1-.89s-.03-.61-.1-.9c-.06-.29-.16-.54-.3-.76-.14-.22-.33-.4-.56-.53-.23-.13-.52-.2-.85-.2s-.61.06-.84.2c-.23.13-.42.31-.56.53-.14.22-.25.48-.31.76-.06.29-.09.59-.09.9"/>
  <polyline class="cls-2" points="304.2 63.37 305.96 63.37 305.96 53.06 304.2 53.06"/>
  <path class="cls-2" d="m309.47,54.75h-1.76v-1.69h1.76m-1.76,2.85h1.76v7.47h-1.76v-7.47Z"/>
  <path class="cls-2" d="m313.46,55.9h1.41v1.37h-1.41v3.7c0,.35.06.58.17.68.12.11.37.17.73.17h.31l.2-.03v1.6l-.43.04c-.17,0-.37.01-.61.01-.3,0-.57-.02-.83-.07-.26-.05-.49-.14-.68-.27-.19-.13-.34-.31-.45-.54-.11-.23-.17-.53-.17-.89v-4.41h-1.17v-1.37h1.17v-2.24h1.76"/>
  <path class="cls-2" d="m315.89,58.19c.03-.46.14-.85.33-1.17.19-.32.43-.58.73-.78.3-.2.63-.34,1.01-.43.37-.09.76-.13,1.16-.13.36,0,.73.03,1.09.1.36.06.68.18.96.35.28.17.51.39.69.68.17.28.26.64.26,1.08v3.81c0,.45.02.8.06,1.06.05.25.12.46.21.61h-1.76l-.13-.41-.04-.45c-.35.4-.73.68-1.16.83-.42.16-.86.24-1.31.24-.69,0-1.25-.19-1.67-.57-.42-.38-.63-.93-.63-1.67,0-.47.09-.85.26-1.14.18-.29.41-.52.69-.69.29-.17.6-.29.95-.36.34-.07.69-.13,1.04-.17.57-.07,1-.18,1.3-.31.3-.14.45-.33.45-.58,0-.41-.12-.68-.35-.81-.24-.13-.57-.2-.99-.2s-.73.09-.97.26c-.23.17-.37.46-.4.86m2.71,1.48c-.2.12-.44.22-.71.28-.27.06-.6.13-1.01.2-.38.07-.68.19-.9.36-.22.17-.33.41-.33.73,0,.37.11.62.34.75.23.14.54.21.94.21s.7-.06.91-.18c.22-.12.39-.28.5-.46l.21-.56c.03-.19.04-.36.04-.51v-.81Z"/>
  <path class="cls-2" d="m323.8,55.9h1.35l.4,1.17c.12-.23.26-.43.43-.61l.54-.43c.19-.12.39-.2.6-.26.21-.06.41-.09.62-.09.82,0,1.43.23,1.85.69.42.46.63,1.16.63,2.12v4.87h-1.74v-4.62c0-.43-.11-.77-.33-1.04-.22-.27-.55-.4-1.02-.4-.44,0-.82.14-1.12.41-.3.27-.46.67-.46,1.19v4.46h-1.75"/>
  <path class="cls-2" d="m343.12,56.3c-.04-.26-.12-.51-.26-.74-.14-.22-.31-.42-.53-.58-.21-.16-.45-.28-.72-.38-.27-.09-.56-.14-.87-.14-.52,0-.97.1-1.34.31-.37.2-.66.48-.9.83-.23.35-.4.75-.5,1.21-.11.46-.16.94-.16,1.45,0,.48.05.94.16,1.39.1.45.28.84.51,1.19.24.35.53.62.9.82.36.2.81.31,1.33.31.35,0,.68-.06.97-.19.3-.13.55-.3.77-.52.21-.22.38-.47.51-.76.12-.29.19-.59.21-.91h1.77c-.05.62-.19,1.17-.43,1.66-.23.49-.53.91-.9,1.26-.37.35-.8.62-1.3.81-.49.19-1.02.29-1.6.29-.74,0-1.4-.14-1.99-.41-.59-.28-1.08-.65-1.49-1.14-.41-.48-.72-1.05-.94-1.7-.22-.65-.33-1.35-.33-2.09s.11-1.49.33-2.16c.21-.67.53-1.24.94-1.74.41-.49.91-.88,1.49-1.16.58-.28,1.24-.43,1.98-.43.53,0,1.04.08,1.52.25.48.17.91.4,1.28.71.37.31.67.68.91,1.11.23.43.37.92.41,1.46"/>
  <path class="cls-2" d="m348.18,54.75h-1.76v-1.69h1.76m-1.76,2.85h1.76v7.47h-1.76v-7.47Z"/>
  <path class="cls-2" d="m352.16,55.9h1.41v1.37h-1.41v3.7c0,.35.06.58.18.68.12.11.36.17.73.17h.31l.19-.03v1.6l-.43.04c-.17,0-.37.01-.61.01-.29,0-.57-.02-.83-.07-.26-.05-.49-.14-.68-.27-.19-.13-.34-.31-.45-.54-.11-.23-.17-.53-.17-.89v-4.41h-1.17v-1.37h1.17v-2.24h1.76"/>
  <path class="cls-2" d="m357.96,64.32c-.2.58-.49,1.01-.84,1.28-.36.27-.86.4-1.48.4-.21,0-.39-.02-.56-.05-.17-.03-.4-.12-.67-.26l.25-1.68c.24.16.43.25.57.28l.38.02.46-.18.27-.34.09-.44-.08-.46-2.48-7h1.89l1.72,5.4,1.62-5.4h1.83"/>
</svg>