<?xml version="1.0" encoding="UTF-8"?>
<svg id="Layer_1" data-name="Layer 1" xmlns="http://www.w3.org/2000/svg" xmlns:xlink="http://www.w3.org/1999/xlink" viewBox="0 0 212.25 115.53">
  <defs>
    <style>
      .cls-1 {
        fill: #e52e8a;
      }

      .cls-1, .cls-2, .cls-3, .cls-4, .cls-5, .cls-6, .cls-7 {
        stroke-width: 0px;
      }

      .cls-2 {
        fill: #004097;
      }

      .cls-3 {
        fill: #8dc63f;
      }

      .cls-4 {
        fill: #f5aa00;
      }

      .cls-5 {
        fill: #888;
      }

      .cls-6 {
        fill: url(#radial-gradient);
      }

      .cls-7 {
        fill: #00a6e9;
      }
    </style>
    <radialGradient id="radial-gradient" cx="77" cy="35.51" fx="77" fy="35.51" r="31.49" gradientUnits="userSpaceOnUse">
      <stop offset=".5" stop-color="#8dc63f"/>
      <stop offset=".59" stop-color="#89c241"/>
      <stop offset=".67" stop-color="#7db748"/>
      <stop offset=".75" stop-color="#6aa554"/>
      <stop offset=".84" stop-color="#508c65"/>
      <stop offset=".92" stop-color="#2d6b7a"/>
      <stop offset=".99" stop-color="#034394"/>
      <stop offset="1" stop-color="#004097"/>
    </radialGradient>
  </defs>
  <g>
    <path class="cls-2" d="m45.64,6.51c-1.24.37-1.98,1.44-2.2,3.23l.04,2.56c.07,4.04.96,5.8,2.69,5.29l1.14-.34c.49-.14.83-1.98,1.02-5.53-.99-3.71-1.89-5.46-2.7-5.22Z"/>
    <path class="cls-2" d="m70.29.13c-1.34.4-2.14,2.15-2.39,5.25.25,3.49,1.5,5.49,3.73,6.01,1.1-.33,1.79-2.27,2.07-5.82l-.09-1.24c-.24-3.39-1.35-4.79-3.32-4.2Z"/>
    <path class="cls-3" d="m35.43,36.26v2.98c7.64,1.55,15.98,1.82,24.48-.14v-5.79c-7.18,2.64-15.39,4.01-24.48,2.96Z"/>
    <path class="cls-7" d="m12.33,28.69c-.68-.09-.56.7-.41,1.23,6.23,3.81,14.37,7.46,23.51,9.32v-2.98c-7.17-.83-14.89-3.16-23.1-7.57Z"/>
    <path class="cls-1" d="m97.14.56c-1.01,1.27-3.67,6.09-3.67,6.09,0,0-3.18,4.86-9.08,10.66v9.06c5.98-5.15,11.78-11.95,17.2-20.75.7-1.35.96-1.61,1.92-2.89.94-1.26-5.38-3.42-6.38-2.17Z"/>
    <path class="cls-4" d="m59.91,33.3v5.79c8.17-1.88,16.49-5.83,24.48-12.72v-9.06c-5.73,5.63-14.02,12.15-24.48,15.99Z"/>
  </g>
  <g>
    <path class="cls-2" d="m108.82,39.96c-1.33-1.33-2.96-1.29-4.88.12-1.35,1.35-2.09,2.87-2.22,4.56-.13,1.69.3,3.03,1.3,4.02,1.37,1.36,2.99,1.36,4.89-.02,3.2-3.21,3.5-6.1.92-8.68Z"/>
    <path class="cls-2" d="m102.08,53.18c-2.23-.19-3.45,2.08-3.45,2.08-4.06,11.16-4.26,20.99-2.44,25.81,1.82,4.82,3.75,2.74,3.75,2.08s.1-1.42.51-4.82c.41-3.4,4.26-14.84,5.18-19,.91-4.16-1.32-5.96-3.55-6.15Z"/>
  </g>
  <path class="cls-2" d="m163.52,84.17c1.26-1.54,1.87-3.18,1.83-4.94-.04-1.76-.62-3.1-1.75-4.03-1.55-1.27-3.24-1.1-5.05.52-2.98,3.64-3,6.67-.06,9.07,1.51,1.24,3.19,1.03,5.03-.62Z"/>
  <path class="cls-2" d="m18.04,59.77c3.15-1.24,4.92-1.47,10.55-1.39,1.61.03,2.04.51,2.42.93.31.35.78.87,1.66.71,1.89-.35,2.74-3.93,2.74-6.36,0-3.28-5.37-3.59-5.99-3.61-8.34.24-11.74.94-15.87,3.26-4.22,2.38-6.35,5.85-6.35,10.3,0,1.12.46,2.7,2.63,3.84,1.35.68,3.67,1.38,7.11,2.13,8.08,1.79,9.32,2.94,9.51,3.24-.07.16-.63,1.06-5.19,2.21-3.51.86-6.98,1.3-10.33,1.3-.72,0-1.55-.04-2.46-.09.08-.1.19-.17.26-.27l.97-1.37h-1.61c-1.33,0-2.47.15-3.39.45-.97.31-1.68.7-2.15,1.18-.43.43-.89,1.05-1.39,1.87-1.03,1.72-1.17,2.38-1.17,2.8,0,1.79,2.23,2.67,2.97,2.95,1.71.68,4.01,1.02,6.85,1.02,6.07,0,11.25-.84,15.38-2.49,5.04-2,7.59-4.98,7.59-8.87,0-1.59-.96-3.09-2.92-4.59-1.81-1.37-4.35-2.54-7.54-3.48-1.16-.34-2.07-.7-3.03-1.07-1.1-.43-2.23-.87-3.73-1.27-.57-.24-.7-.45-.7-.47,0-.79.84-1.95,3.19-2.88Z"/>
  <path class="cls-2" d="m137.55,35.75s3.66-3.69,1.73-7.05c-1.93-3.36-5.94-3.43-9.33.44-3.4,3.86-17.04,18.03-19.99,46.63-.83,4.06,1.93,12.59,3.9,5.74,2.72-9.48,9.39-29.71,23.7-45.76Z"/>
  <path class="cls-2" d="m154.66,69.28c-2.16,1.56-5.23,3.95-8.7,5.82-3.12,1.69-5.79,2.54-8.01,2.54-1.8,0-3.22-.55-4.27-1.66-1.05-1.1-1.57-2.62-1.57-4.54v-.42c6.76-1.53,12.33-4.04,16.7-7.55,3.89-3.11,5.84-6.02,5.84-8.74,0-2.49-2.12-3.73-6.37-3.73-5.98,0-11.58,2.42-16.81,7.25-5.22,4.83-7.85,9.93-7.85,15.3,0,3.67.89,6.49,2.65,8.44,1.76,1.95,4.26,2.92,7.49,2.92,12.14,0,19.37-10.56,19.37-10.56,3.31-3.81,1.93-5.36,1.52-5.07Zm-13.9-10.94c2.69-1.81,4.82-2.72,6.37-2.72.41,0,.63.31.63.94,0,2.83-5.09,6.42-15.26,10.78,2.03-3.68,4.79-6.68,8.26-9Z"/>
  <path class="cls-2" d="m174.83,34.39s1.78-1.98,3.96-1.23c2.18.76,3.96,3.13,2,7.09-1.95,3.96-11.82,22.83-13.07,26.15-1.26,3.33-1.55,4.07-1.71,4.73-.16.67-2.61,2.27-3.22-3.05-.61-5.32,5.21-23.49,12.05-33.7Z"/>
  <path class="cls-6" d="m89.64,77.39c-2.25,1.93-4.56,2.03-4.56,2.03-3.49-.02-1.21-4.81-.25-6.36,4.74-9.94,7.69-15.35,7.92-18.41-.05-.03-.07-.07-.07-.12,0-1.67-1.13-2.5-3.4-2.5-2.64,0-6.16,1.9-10.56,5.7l-10.44,10c3.01-6.38,4.9-11.67,4.9-13.12,0-1.73-1.13-2.58-3.39-2.58-2.64,0-6.54,3.27-10.93,7.07l-9.94,8.63,1.36-2.79c2.08-3.6,3.54-6.69,3.64-7.68-.24-1.02-1.12-1.77-3.03-1.79-3.59-.04-10.7,7.73-11.57,8.46-.85.71-1.61,1.42-.51,1.36,1.39-.1,3.71-1.82,4.36-2.27-.72,1.31-8.14,16-8.58,17.2-.17.56-.26,1.25-.26,2.04,0,1.87.8,2.81,2.39,2.81,1.68,0,3.82-1.17,6.42-3.51.29-.28,3.12-3.05,8.48-8.3,3.87-3.69,7.13-6.56,9.81-8.54-.71,1.67-2.59,5.74-5.66,12.23-1.21,2.65-1.82,4.3-1.82,4.93.04,1.95,1.08,2.92,3.15,2.92.87,0,1.54-.15,2.01-.48.46-.3,1.76-1.48,3.89-3.49,3.32-3.17,6.6-6.33,9.87-9.49,2.68-2.52,5.35-4.74,7.99-6.63-4.77,9.53-7.16,15.32-7.16,17.33s1.37,3.02,4.08,3.02c2.09,0,4.23-.46,6.41-1.29.42-.16,1.91-.73,2.21-.87,1.8-.91,3.37-2.3,4.5-3.43,1.12-1.13.98-3.86-1.26-2.09Z"/>
  <g>
    <path class="cls-5" d="m108.94,95.11c-1.78-.48-3.16-.66-4.8-.66-5.3,0-9.04,2.78-9.04,6.92,0,3.34,2.52,4.96,5.75,4.96.98,0,1.65-.08,2.71-.34l.45-3.21h-3.32l.4-2.86h7.16l-1.3,9.23c-1.03.29-3.68.53-5.62.53-7.53,0-10.21-4.21-10.21-8.17,0-4.56,3.53-10.4,13.02-10.4,1.99,0,3.82.24,5.25.66l-.45,3.34Z"/>
    <path class="cls-5" d="m112.68,103.92c-.19,1.96,1.04,3.1,2.76,3.1,1.11,0,2.5-.43,4.46-1.22l-.64,3c-1.48.56-2.94.88-4.19.88-3.66,0-6-2.31-6-5.86s2.89-6.63,6.53-6.63,5.8,2.89,4.96,6.74h-7.87Zm4.56-2.07c.22-1.3-.5-2.2-1.72-2.2s-1.96.69-2.49,2.2h4.21Z"/>
    <path class="cls-5" d="m132.38,109.43h-3.58l.21-1.35c-1.2,1.01-2.6,1.57-3.9,1.57-2.76,0-3.82-2.1-3.45-4.61l1.09-7.64h3.58l-.9,6.39c-.35,2.41.11,3.21.95,3.21.93,0,1.96-.61,3.03-1.75l1.09-7.85h3.58l-1.7,12.04Z"/>
    <path class="cls-5" d="m139.46,98.93l.06.05c1.16-1.11,2.39-1.8,3.77-1.8,1.59,0,2.73.82,3.05,2.2,1.69-1.62,2.92-2.2,4.37-2.2,2.62,0,3.84,2.04,3.48,4.77l-1.04,7.48h-3.58l.98-6.92c.24-1.7-.08-2.68-.95-2.68-.8,0-1.91.71-2.92,1.88l-1.08,7.72h-3.58l.93-6.89c.24-1.83-.02-2.7-1.03-2.7-.77,0-1.7.61-2.84,1.88l-1.08,7.72h-3.58l1.7-12.04h3.58l-.21,1.54Z"/>
    <path class="cls-5" d="m158.44,109.22c-.37,2.68-.63,3.95-1.69,5.01-.93.93-2.71,1.62-4.62,1.14l.43-2.87c1.54,0,1.96-.79,2.2-2.52l1.78-12.6h3.58l-1.67,11.83Zm2.13-15.17c0,1.03-.82,1.85-1.86,1.85s-1.86-.82-1.86-1.85.82-1.86,1.86-1.86,1.86.82,1.86,1.86Z"/>
    <path class="cls-5" d="m164.26,103.92c-.19,1.96,1.03,3.1,2.75,3.1,1.11,0,2.49-.43,4.46-1.22l-.64,3c-1.49.56-2.94.88-4.19.88-3.66,0-5.99-2.31-5.99-5.86s2.89-6.63,6.52-6.63,5.81,2.89,4.96,6.74h-7.87Zm4.56-2.07c.21-1.3-.5-2.2-1.73-2.2s-1.96.69-2.49,2.2h4.22Z"/>
    <path class="cls-5" d="m178.92,109.67c-3.42,0-6.08-2.54-6.08-5.81,0-3.66,3.13-6.68,6.95-6.68,3.45,0,5.97,2.23,5.97,5.68,0,3.84-2.97,6.81-6.84,6.81Zm.71-9.57c-2.33,0-3.07,2.76-3.07,3.98,0,1.83,1.33,2.68,2.39,2.68,2.07,0,3.1-2.33,3.1-4s-.95-2.65-2.42-2.65Z"/>
    <path class="cls-5" d="m191.38,98.75c1.46-1.11,2.65-1.57,4.11-1.57,2.78,0,3.52,2.34,3.18,4.8l-1.03,7.45h-3.58l1.01-7.19c.16-1.17-.1-2.41-1.06-2.41-.82,0-1.8.55-3.02,1.85l-1.09,7.74h-3.58l1.7-12.04h3.58l-.21,1.35Z"/>
    <path class="cls-5" d="m211.91,100.04h-1.94c.34.74.45,1.22.45,1.91,0,2.15-1.59,4.4-5.04,4.4-1.72,0-2.18.13-2.18.64,0,1.38,7.27.03,7.27,4.61,0,1.99-1.3,3.92-6.21,3.92-4.61,0-5.73-1.64-5.73-2.97,0-1.16.95-2.06,2.97-2.7-1.01-.48-1.67-1.35-1.67-2.23,0-.61.34-1.25.9-1.62.4-.26.71-.4,1.54-.61-1.43-.85-2.09-1.96-2.09-3.47,0-2.2,1.91-4.54,5.33-4.54h6.74l-.34,2.65Zm-10.24,11.93c0,.85.79,1.25,2.65,1.25,2.02,0,2.81-.32,2.81-1.14,0-.9-1.11-1.03-3.26-1.51-1.65.21-2.2.74-2.2,1.4Zm3.76-12.17c-1.27,0-1.96.93-1.96,2.65,0,1.06.64,1.67,1.67,1.67,1.56,0,1.96-1.35,1.96-2.6,0-1.06-.64-1.72-1.67-1.72Z"/>
  </g>
</svg>